<?xml version="1.0" encoding="UTF-8" standalone="no"?>
<!DOCTYPE svg PUBLIC "-//W3C//DTD SVG 1.1//EN"
 "http://www.w3.org/Graphics/SVG/1.1/DTD/svg11.dtd">
<!-- Generated by graphviz version 2.43.0 (0)
 -->
<!-- Title: G Pages: 1 -->
<svg width="142pt" height="88pt"
 viewBox="0.00 0.00 142.00 87.59" xmlns="http://www.w3.org/2000/svg" xmlns:xlink="http://www.w3.org/1999/xlink">
<g id="graph0" class="graph" transform="scale(1 1) rotate(0) translate(4 83.59)">
<title>G</title>
<polygon fill="white" stroke="transparent" points="-4,4 -4,-83.59 138,-83.59 138,4 -4,4"/>
<!-- 0 -->
<g id="node1" class="node">
<title>0</title>
<ellipse fill="none" stroke="black" cx="18" cy="-24.59" rx="18" ry="18"/>
<text text-anchor="middle" x="18" y="-20.89" font-family="Times,serif" font-size="14.00">0</text>
</g>
<!-- 0&#45;&gt;0 -->
<g id="edge1" class="edge">
<title>0&#45;&gt;0</title>
<path fill="none" stroke="black" d="M10.33,-40.88C8.48,-50.97 11.04,-60.59 18,-60.59 22.46,-60.59 25.11,-56.64 25.95,-51.15"/>
<polygon fill="black" stroke="black" points="29.45,-50.77 25.67,-40.88 22.45,-50.97 29.45,-50.77"/>
<text text-anchor="middle" x="18" y="-64.39" font-family="Times,serif" font-size="14.00">Σ</text>
</g>
<!-- 1 -->
<g id="node2" class="node">
<title>1</title>
<ellipse fill="none" stroke="black" cx="112" cy="-24.59" rx="18" ry="18"/>
<ellipse fill="none" stroke="black" cx="112" cy="-24.59" rx="22" ry="22"/>
<text text-anchor="middle" x="112" y="-20.89" font-family="Times,serif" font-size="14.00">1</text>
</g>
<!-- 0&#45;&gt;1 -->
<g id="edge2" class="edge">
<title>0&#45;&gt;1</title>
<path fill="none" stroke="black" d="M34.18,-33.25C40.16,-36.19 47.21,-39.11 54,-40.59 63.44,-42.64 73.63,-41.03 82.75,-38.17"/>
<polygon fill="black" stroke="black" points="83.98,-41.44 92.14,-34.68 81.55,-34.88 83.98,-41.44"/>
<text text-anchor="middle" x="63" y="-44.39" font-family="Times,serif" font-size="14.00">p:b</text>
</g>
<!-- 0&#45;&gt;1 -->
<g id="edge3" class="edge">
<title>0&#45;&gt;1</title>
<path fill="none" stroke="black" d="M36.07,-22.83C41.77,-22.32 48.15,-21.84 54,-21.59 62.35,-21.23 71.39,-21.43 79.76,-21.87"/>
<polygon fill="black" stroke="black" points="79.69,-25.37 89.89,-22.51 80.13,-18.38 79.69,-25.37"/>
<text text-anchor="middle" x="63" y="-25.39" font-family="Times,serif" font-size="14.00">a:ε</text>
</g>
<!-- 0&#45;&gt;1 -->
<g id="edge4" class="edge">
<title>0&#45;&gt;1</title>
<path fill="none" stroke="black" d="M32.36,-13.16C38.52,-8.61 46.2,-3.92 54,-1.59 64.54,1.57 75.83,-1.55 85.56,-6.39"/>
<polygon fill="black" stroke="black" points="83.92,-9.49 94.33,-11.42 87.4,-3.41 83.92,-9.49"/>
<text text-anchor="middle" x="63" y="-5.39" font-family="Times,serif" font-size="14.00">ε:k</text>
</g>
<!-- 1&#45;&gt;1 -->
<g id="edge5" class="edge">
<title>1&#45;&gt;1</title>
<path fill="none" stroke="black" d="M103.27,-45.17C102.06,-55.43 104.97,-64.59 112,-64.59 116.5,-64.59 119.32,-60.83 120.44,-55.43"/>
<polygon fill="black" stroke="black" points="123.95,-55.26 120.73,-45.17 116.95,-55.06 123.95,-55.26"/>
<text text-anchor="middle" x="112" y="-68.39" font-family="Times,serif" font-size="14.00">Σ</text>
</g>
</g>
</svg>
